<?xml version="1.0" encoding="UTF-8"?> <svg xmlns="http://www.w3.org/2000/svg" xmlns:xlink="http://www.w3.org/1999/xlink" viewBox="0 0 726.07 331.29"><defs><style>.cls-1,.cls-2,.cls-3{fill:none;}.cls-2{clip-path:url(#clip-path);}.cls-3{clip-path:url(#clip-path-2);}.cls-4{clip-path:url(#clip-path-3);}.cls-5{fill:#1d1d1b;}</style><clipPath id="clip-path"><polygon class="cls-1" points="0.72 403.56 0.72 0 778.99 0 778.99 403.56 0.72 403.56 0.72 403.56"></polygon></clipPath><clipPath id="clip-path-2"><polygon class="cls-2" points="0.72 0 778.99 0 778.99 403.56 0.72 403.56 0.72 0 0.72 0"></polygon></clipPath><clipPath id="clip-path-3" transform="translate(-28.34 -18.06)"><path class="cls-1" d="M451.09,64.54A62.37,62.37,0,0,0,326.36,64H0V407.69H777.42V64.54Z"></path></clipPath></defs><g id="Layer_2" data-name="Layer 2"><g id="Calque_1" data-name="Calque 1"><path class="cls-5" d="M102,210.93q0,14.63-12.51,22.76c-5.23,3.45-11.87,5.15-19.91,5.15a74.11,74.11,0,0,1-11.62-1.07v42.85a20.49,20.49,0,0,0,.3,4.37,3.94,3.94,0,0,0,3.33,2.57,65.33,65.33,0,0,0,8.44.58c1.11,0,1.67.38,1.67,1.08,0,1-.7,1.5-2.12,1.5H34.88c-3,0-4.53-.5-4.53-1.5,0-.7,1.06-1.08,3.15-1.08,4.73,0,7.44-.44,8.15-1.34.82-.41,1.25-1.43,1.38-3V194.66c0-3.13-.89-5-2.58-5.76a16.28,16.28,0,0,0-5.3-.59H32.62c-1.52,0-2.27-.4-2.27-1.23s1.41-1.33,4.23-1.33H67.76q17.19,0,25.19,6,9,6.76,9,19.15Zm-15.81.13q0-22.74-19-22.75c-4.21,0-7,.73-8.29,2.12-.61.61-.91,2.17-.91,4.71v40.37a20.45,20.45,0,0,0,2.72.14c6.64,0,12.26-1.45,16.9-4.39,5.71-3.64,8.61-10.37,8.61-20.2Z" transform="translate(-28.34 -18.06)"></path><path class="cls-5" d="M68.07,292.72H34.87a12.11,12.11,0,0,1-4-.49h0a3.22,3.22,0,0,1-2.48-3h0a2.9,2.9,0,0,1,2.15-2.71h0a9.62,9.62,0,0,1,3-.35h0a22,22,0,0,0,6.5-.64h0l.08,0,.66-.57v-.08a3.13,3.13,0,0,0,.26-1.13h0l0-89.12c-.05-2.87-.77-3.69-1.33-3.9h0a14.64,14.64,0,0,0-4.55-.46H32.62a5.76,5.76,0,0,1-2.66-.52h0a3,3,0,0,1-1.61-2.71h0a3.16,3.16,0,0,1,2.44-2.91h0a12.74,12.74,0,0,1,3.79-.42H67.74c11.68,0,20.5,2,26.41,6.42h0c6.52,4.87,9.88,12,9.84,20.77h0c.06,10.34-4.57,18.76-13.42,24.45h0c-5.63,3.7-12.68,5.44-21,5.44h0a74.45,74.45,0,0,1-9.62-.72h0v40.52a26.53,26.53,0,0,0,.19,3.68h0c.32.74.55,1,1.71,1.28h0a61.56,61.56,0,0,0,8.17.58h0a4.2,4.2,0,0,1,2.33.56h0a3,3,0,0,1,1.33,2.5h0A3.22,3.22,0,0,1,72.3,292h0a4.67,4.67,0,0,1-2.74.75H68.07Zm-9.19-4a5.87,5.87,0,0,1-2.56-3.13h0a20.29,20.29,0,0,1-.37-5h0V237.76a2,2,0,0,1,.34-1.12h0a2,2,0,0,1-.34-1.15h0V195.14c.09-2.71.06-4.46,1.4-6.08h0a9,9,0,0,1,1.79-1.31H42.4c1.91,1.45,2.65,4,2.62,6.91h0v89.27c-.16,1.77-.6,3.55-2.31,4.58h0a1.37,1.37,0,0,0-.29.2H58.88Zm10.68-51.9c7.75,0,14-1.63,18.81-4.79h0c7.84-5.16,11.57-11.93,11.6-21.09h0c0-7.78-2.72-13.36-8.23-17.54h0c-3.3-2.52-8.13-4.25-14.53-5.08h0a16.36,16.36,0,0,1,5.72,4.41h0c3.61,4.3,5.23,10.5,5.23,18.34h0c0,10.18-3,17.78-9.54,21.88h0A29,29,0,0,1,69,236.81h.56Zm-8.9-3.15c6.34,0,11.56-1.42,15.82-4.1h0c5-3.15,7.65-9,7.67-18.5h0c-.31-14.69-5.33-20.52-17-20.76h0c-4-.06-6.29.81-6.86,1.53h0a2.74,2.74,0,0,0-.17.6h0a14.69,14.69,0,0,0-.19,2.71h0v38.52Z" transform="translate(-28.34 -18.06)"></path><path class="cls-5" d="M282.83,264.29c0,.37-.1,2.87-.3,7.39s-.28,8.86-.28,13v5q-14.82-.89-58.55-.9H204.85c-1.89,0-2.87-.39-2.87-1.22,0-.55.3-.84.91-.91.31,0,2.21-.16,5.74-.42,2.59-.2,4.19-.77,4.74-1.66s.83-3.31.83-7.12v-85c0-2.91-.43-4.64-1.28-5.23s-3.59-.81-8.22-.81c-1.62,0-2.42-.42-2.42-1.28s1.1-1.28,3.33-1.28h63.95a53,53,0,0,0,8.29-.6q.3,6.5,1.36,17.94l.6,6.47a9.6,9.6,0,0,1,.17,2c0,1-.46,1.51-1.36,1.51-1.12,0-1.93-1.25-2.43-3.8q-2.87-13.64-9.34-17.29c-3.23-1.81-11.66-2.73-25.35-2.73H229.14v44.33h3.62c11.24,0,18.12-.85,20.59-2.56s4.16-6.68,5-14.93c.2-2.11.75-3.15,1.65-3.15,1.11,0,1.65.89,1.65,2.71s-.07,4.46-.29,8-.29,6.19-.29,8q0,16.14.48,22.19c.07,1,.1,1.83.1,2.56,0,1.3-.52,1.94-1.65,1.94-.69,0-1.15-.43-1.41-1.27s-.67-3.63-1.28-8.39c-.8-5.93-3.25-9.58-7.34-11-1.81-.57-6.52-.9-14.12-.9h-6.76v50.54q33.18,0,38.92-1.36,9.94-2.22,11.31-19.07c.18-2.48.83-3.71,2-3.71s1.49,1.05,1.49,3.17Z" transform="translate(-28.34 -18.06)"></path><path class="cls-5" d="M282.1,291.62c-9.77-.61-29.27-.9-58.4-.9H204.85a7.72,7.72,0,0,1-2.92-.46h0a3,3,0,0,1-2-2.77h0c-.17-1.33,1.45-2.92,2.91-2.94h0c.05,0,2.1-.13,5.59-.41h0a9.55,9.55,0,0,0,2.61-.44h0c.57-.19.57-.24.57-.27h0a19.86,19.86,0,0,0,.54-6.05h0v-85a9.69,9.69,0,0,0-.44-3.53h0a6.75,6.75,0,0,0-1.74-.32h0c-1.27-.13-3.05-.18-5.31-.18h0a6.14,6.14,0,0,1-2.76-.57h0a3.06,3.06,0,0,1-1.68-2.72h0a3,3,0,0,1,2.15-2.83h0a9,9,0,0,1,3.18-.47h63.94a50.22,50.22,0,0,0,8-.57h0a2.12,2.12,0,0,1,1.59.42h0a2.05,2.05,0,0,1,.71,1.47h0c.2,4.26.66,10.23,1.34,17.85h0l.59,6.25a11.58,11.58,0,0,1,.2,2.37h0a3.67,3.67,0,0,1-.85,2.49h0a3.21,3.21,0,0,1-2.51,1h0c-3-.25-3.86-2.82-4.39-5.37h0c-1.84-8.9-4.88-14.08-8.37-16h0c-2.3-1.42-10.84-2.53-24.35-2.49H231.14v40.35h1.61c11.07.08,18-1,19.45-2.19h0c1.44-.79,3.41-5.43,4.19-13.51h0c.23-2.09.72-4.65,3.65-5h0a3.43,3.43,0,0,1,3,1.64h0a5.92,5.92,0,0,1,.69,3.09h0c0,1.86-.08,4.55-.29,8.11h0c-.2,3.5-.3,6.13-.3,7.87h0c0,10.71.17,18.14.49,22h0c.07,1,.1,1.9.1,2.67h0a4.17,4.17,0,0,1-.87,2.77h0a3.44,3.44,0,0,1-2.79,1.2h0a3.53,3.53,0,0,1-3.33-2.73h0a86.94,86.94,0,0,1-1.34-8.65h0c-.81-5.58-2.8-8.25-6-9.38h0c-1.18-.42-6-.82-13.49-.8h-4.76v46.51c20.8,0,33.28-.48,36.46-1.28h0c5.4-1.2,8.8-6.31,9.76-17.29h0c.18-2.47.85-5.3,4-5.56h0a3.25,3.25,0,0,1,2.95,1.95h0a7.3,7.3,0,0,1,.55,3.24h0c0,.54-.09,2.92-.29,7.46h0c-.2,4.48-.31,8.8-.31,12.89h0v5a1.81,1.81,0,0,1-.63,1.45h0a1.89,1.89,0,0,1-1.34.56h-.15Zm-1.86-4.13v-2.85c0-4.14.09-8.52.28-13.07h0c0-.23,0-.44,0-.66h0c-1.68,8.13-5.61,13.49-12,14.93h0a73.75,73.75,0,0,1-11.93,1h0q15.33.21,23.67.62Zm-56.54-.79h4.06l0,0h0a2.13,2.13,0,0,1-.59-1.42h0V234.72a2.06,2.06,0,0,1,.59-1.42h0a1,1,0,0,1,.18-.18h0a.62.62,0,0,1-.18-.18h0a2,2,0,0,1-.59-1.4h0V187.21a2,2,0,0,1,.59-1.42h0s0,0,0,0H214.37c1.71,1.6,1.74,3.68,1.84,6.59h0v85c-.07,4-.12,6.27-1.12,8.14h0a4.83,4.83,0,0,1-1.16,1.18h9.77Zm27-53c4.91,1.66,7.82,6.19,8.63,12.39h0c-.14-4.17-.2-9.64-.2-16.52h0c0-1.87.1-4.56.31-8.11h0c0-.45.06-.86.08-1.27h0c-1,5-2.42,8.46-5,10.44h0c-1.87,1.18-4.68,1.9-8.59,2.35h0a21,21,0,0,1,4.78.72Zm17.15-45.54c4.59,2.66,7.61,8,9.63,15.68h0l-.23-2.58c-.59-6.47-1-11.74-1.26-15.87h0a61.65,61.65,0,0,1-6.42.34H256.82c5.11.44,8.71,1.22,11,2.43Zm-56.1.55h0Z" transform="translate(-28.34 -18.06)"></path><path class="cls-5" d="M356.6,259.15c0,8.66-3.3,16-9.89,22.1a33.85,33.85,0,0,1-23.77,9.11q-8.13,0-19.44-5A12.77,12.77,0,0,0,299,284c-1.22,0-2,1.4-2.25,4.18-.11,1.43-.76,2.15-2,2.15-1,0-1.52-.58-1.52-1.8a7.23,7.23,0,0,1,.16-1.8,134.53,134.53,0,0,0,1.21-17.07c0-1-.12-3.81-.29-8.43a12.35,12.35,0,0,1-.16-2.42c0-1.49.6-2.26,1.81-2.26,1,0,1.69,1.22,2.1,3.66q3.92,27.09,25.49,27.11c6.13,0,10.9-1.73,14.25-5.2s5.07-8.38,5.07-14.68A21.83,21.83,0,0,0,338,253.06c-3.25-4-8.87-7.92-16.82-11.85-9.55-4.74-16.2-9.3-19.91-13.77s-5.6-9.88-5.6-16.41c0-8.35,2.72-15.22,8.09-20.67s12.2-8.12,20.44-8.12c3.43,0,8.16,1.13,14.17,3.44A14.69,14.69,0,0,0,343,186.9a2.92,2.92,0,0,0,2.19-.6,7.65,7.65,0,0,0,1-3.16,1.59,1.59,0,0,1,1.66-1.51c1,0,1.51.61,1.51,1.81a8.64,8.64,0,0,1-.15,1.8,69.87,69.87,0,0,0-.47,8.74,69,69,0,0,0,.76,11.49l.16,2.41c.11,1.1-.36,1.64-1.35,1.64s-1.88-1.14-2.27-3.46a27.18,27.18,0,0,0-7.83-14.86c-4.14-4-8.75-6-13.87-6s-9.06,1.6-12,4.83-4.45,7.59-4.45,13.13q0,9.65,6.5,15.53,3.6,3.32,15.68,9.36,14.18,7.07,20.35,14.38a25.21,25.21,0,0,1,6.2,16.68Z" transform="translate(-28.34 -18.06)"></path><path class="cls-5" d="M294.73,292.38a3.46,3.46,0,0,1-2.66-1.17h0a4.12,4.12,0,0,1-.84-2.65h0a9.58,9.58,0,0,1,.17-2.07h0a128.66,128.66,0,0,0,1.18-16.8h0c0-.88-.11-3.71-.28-8.24h0a15.65,15.65,0,0,1-.17-2.61h0a4.62,4.62,0,0,1,.91-3h0a3.69,3.69,0,0,1,2.92-1.3h0c3,.34,3.59,2.88,4.08,5.38h0c2.76,17.61,10.14,25.23,23.51,25.39h0c5.78,0,9.88-1.57,12.8-4.6h0c2.94-3,4.5-7.32,4.5-13.28h0a20,20,0,0,0-4.43-13.16h0c-3-3.61-8.36-7.47-16.16-11.32h0c-9.7-4.8-16.52-9.42-20.58-14.23h0c-4.05-4.79-6.06-10.82-6.06-17.72h0c0-8.77,2.93-16.29,8.67-22.09h0c5.74-5.81,13.16-8.74,21.87-8.72h0c3.87,0,8.74,1.25,14.89,3.58h0a13.34,13.34,0,0,0,4,1.08h0a4.17,4.17,0,0,0,.71,0h0a1.6,1.6,0,0,1,.08-.23h0c.11-.41.27-1,.42-1.87h0a3.64,3.64,0,0,1,3.62-3.12h0a3.3,3.3,0,0,1,2.67,1.18h0a3.92,3.92,0,0,1,.84,2.64h0a9.12,9.12,0,0,1-.18,2.07h0a70.77,70.77,0,0,0-.43,8.47h0a70.15,70.15,0,0,0,.75,11.35h0l.16,2.45v.38h0a3.33,3.33,0,0,1-.95,2.45h0a3.32,3.32,0,0,1-2.42.91h0c-2.86-.18-3.83-2.72-4.22-5.1h0a24.81,24.81,0,0,0-7.27-13.77h0c-3.84-3.68-7.88-5.4-12.46-5.42h0c-4.63,0-8,1.41-10.54,4.2h0c-2.55,2.78-3.91,6.55-3.92,11.77h0c0,6,1.94,10.5,5.84,14.05h0c2.07,1.92,7.25,5.05,15.22,9h0c9.59,4.81,16.59,9.71,21,14.9h0a27,27,0,0,1,6.67,18h0a30.93,30.93,0,0,1-10.53,23.56h0a35.72,35.72,0,0,1-25.12,9.68h0c-5.83,0-12.55-1.77-20.29-5.16h0a11.75,11.75,0,0,0-3.41-1.16h0a7.29,7.29,0,0,0-.53,2.31h0a4.13,4.13,0,0,1-3.75,4h-.23Zm9.56-8.82c1.74.78,3.41,1.43,5,2h0c-6.76-4.33-11.19-12.3-13-23.24h0c.15,4,.24,6.36.24,7.35h0a126.55,126.55,0,0,1-.88,14.49h0a3.84,3.84,0,0,1,3.27-2.13h0a13.42,13.42,0,0,1,5.32,1.51Zm.84-91.78c-5,5.09-7.48,11.33-7.5,19.26h0c0,6.16,1.72,11.11,5.13,15.14h0c3.39,4,9.84,8.57,19.26,13.22h0c8.09,4,13.91,8.06,17.48,12.39h0a23.93,23.93,0,0,1,5.38,15.68h0c0,6.65-1.83,12.16-5.64,16.09h0a18.47,18.47,0,0,1-1.95,1.72h0a32.62,32.62,0,0,0,8-5.52h0c6.24-5.77,9.23-12.46,9.24-20.62h0a23,23,0,0,0-5.71-15.35h0c-3.82-4.56-10.4-9.26-19.72-13.9h0c-8.12-4.1-13.39-7.17-16.13-9.68h0c-4.77-4.28-7.18-10.16-7.16-17h0c0-5.88,1.62-10.84,5-14.49h0a15,15,0,0,1,3.44-2.83h0a24.45,24.45,0,0,0-9.15,5.9Zm34.44-2a28.22,28.22,0,0,1,7.45,12h0c-.18-2.25-.28-4.85-.28-7.82h0c0-2.48.07-4.71.25-6.76h0l-.31.4h0A4.69,4.69,0,0,1,343,188.9h0a17,17,0,0,1-5.4-1.34h0l-1.29-.49h0a23.12,23.12,0,0,1,3.25,2.71Z" transform="translate(-28.34 -18.06)"></path><path class="cls-5" d="M447.08,210.74q0,1.95-1.8,1.95c-1.2,0-2.07-1.3-2.57-3.92-.2-1.81-.41-3.61-.6-5.44a26.63,26.63,0,0,0-3.46-9.18c-2.11-3.31-5.59-5.44-10.41-6.34a32.29,32.29,0,0,0-7.55-.75c-4.74.13-7.59.22-8.59.29v91.11c0,3.6.94,5.88,2.85,6.8,1,.5,3.81.8,8.45.9,1.19.08,1.82.52,1.82,1.26s-.82,1.29-2.43,1.29a13,13,0,0,1-2.1-.15c-6-.19-10.31-.3-12.82-.3-3.31,0-6.44.09-9.36.25s-6.63.2-11.16.2c-2.3,0-3.47-.39-3.47-1.22s2.16-1.4,6.5-1.52c3.12,0,5.13-.62,6-1.94.51-.82.77-2.87.77-6.22V187.35c-10,.12-16.15.6-18.57,1.51-6.34,2.32-10,8.5-11.17,18.54-.28,3-1,4.54-2.09,4.54s-1.82-1-1.82-3.17c0-1.09.05-2.2.15-3.3L364,202q.45-6.94,1.36-18.25h6.78l30.76.45c3.64.09,9.25.09,16.9,0l25-.45c.19,5.65.86,14,1.95,25a5.74,5.74,0,0,0,.17,1.13c.08.45.14.73.14.84Z" transform="translate(-28.34 -18.06)"></path><path class="cls-5" d="M420.61,290.57c-6-.21-10.28-.32-12.74-.32h0c-3.3,0-6.38.08-9.27.25h0c-3,.13-6.72.22-11.25.22h0a10.17,10.17,0,0,1-3.27-.43h0a3,3,0,0,1-2.21-2.8h0c.3-2.37,2.06-2.68,3.18-3h0a27.54,27.54,0,0,1,5.33-.52h0c2.9,0,4.2-.7,4.31-1h0a18,18,0,0,0,.47-5.14h0V189.39c-8.68.13-14.25.7-15.86,1.36h0c-5.39,2-8.73,7.14-9.87,16.87h0c-.42,3-.69,5.82-4.09,6.33h0a3.61,3.61,0,0,1-3.12-1.8h0a6.85,6.85,0,0,1-.7-3.38h0c0-1.19.05-2.33.15-3.5h0l.32-3.42q.43-6.94,1.33-18.28h0a2,2,0,0,1,2-1.85h6.8l30.78.47c1.81.05,4.1.07,6.9.07h0q4.2,0,9.93-.07h0l25-.47a2,2,0,0,1,2.05,1.95h0c.18,5.54.83,13.85,1.94,25.1h0a6.46,6.46,0,0,0,.13.72h0a7.7,7.7,0,0,1,.17,1.25h0a3.9,3.9,0,0,1-1,2.83h0a3.77,3.77,0,0,1-2.82,1.12h0c-3-.22-4-2.84-4.56-5.7h0c-.2-1.81-.4-3.61-.57-5.26h0a24.29,24.29,0,0,0-3.2-8.52h0c-1.77-2.78-4.64-4.59-9.1-5.43h0a32.75,32.75,0,0,0-6.27-.74h-.85c-2.9.09-5.13.15-6.61.21h0l0,89.2c0,3.34.88,4.62,1.77,5h0c.11.17,3.08.64,7.69.68h0c1.41,0,3.7,1.09,3.65,3.28h0a3.05,3.05,0,0,1-1.66,2.74h0a6.09,6.09,0,0,1-2.75.56h0a12.62,12.62,0,0,1-2.18-.15ZM399.16,187.35v90.49c-.07,3.49-.11,5.49-1.11,7.35h0a6.43,6.43,0,0,1-1.46,1.39h0c.63,0,1.25-.07,1.81-.09h0c3-.15,6.11-.25,9.47-.25h0c1.25,0,2.94,0,5.06.1h0c-2.1-1.69-2.86-4.59-2.84-7.88h0V187.35a2,2,0,0,1,.33-1.08h-.6c-2.82,0-5.15,0-7-.08h0l-4.11-.06a1.93,1.93,0,0,1,.41,1.22Zm41.18,5.73a28.65,28.65,0,0,1,3.75,10h0c.19,1.8.41,3.6.6,5.29h0a2.66,2.66,0,0,0,.07.37h0c-1-9.78-1.62-17.43-1.87-23h0l-13.43.24c4.79,1,8.56,3.4,10.88,7.05ZM366,202.15l-.26,3.07c1.4-9.32,5.39-15.76,12.2-18.22h0a24.11,24.11,0,0,1,5.79-1.09h0l-11.57-.17h-4.94c-.52,6.67-.95,12.14-1.22,16.41Z" transform="translate(-28.34 -18.06)"></path><path class="cls-5" d="M492.94,287.26c0,.87-.61,1.3-1.82,1.3H489.6q-.9-.45-20.59-.45c-2.52,0-5.05.1-7.56.3-1.33.11-3.33.15-6.06.15-1.31,0-2-.45-2-1.36s1.3-1.24,3.94-1.36c4-.08,6.36-.57,7.07-1.42s1.07-3.77,1.07-8.71V196.14q0-7.42-.76-8.33-.93-1.51-8.41-1.81c-1.92-.09-2.91-.46-2.91-1.07,0-.81.62-1.19,1.85-1.19h20.6q2.26,0,8.84.14l5.79-.14c1.62,0,2.45.42,2.45,1.29s-2.27,1.24-6.81,1.42c-2.56.11-4.16.55-4.71,1.36s-.83,2.92-.83,6.34v80.53c0,5.75.22,8.88.75,9.35,1.11,1.12,4.43,1.77,9.92,2,1.11,0,1.68.43,1.68,1.26Z" transform="translate(-28.34 -18.06)"></path><path class="cls-5" d="M489.6,290.57l-.6-.15v.07l-.16-.05h0c-.19,0-.54,0-1-.08h0c-.89-.07-2.19-.1-3.89-.14h0c-3.41-.06-8.39-.12-14.94-.12h0c-2.47,0-4.93.12-7.39.32h0c-1.44.09-3.48.15-6.23.15h0a4.55,4.55,0,0,1-2.63-.71h0a3.2,3.2,0,0,1-1.35-2.67h0c.77-3.46,3.3-3,5.89-3.37h0a15.94,15.94,0,0,0,5.46-.68h.11s0,0,.08-.29h0a11.49,11.49,0,0,0,.27-1.49h0a44.29,44.29,0,0,0,.24-5.64h0l0-79.57a43,43,0,0,0-.39-7h0l.08,0-.16-.24,0,.06a6.56,6.56,0,0,0-1.25-.37h0a40.71,40.71,0,0,0-5.49-.57h0c-1.88-.27-4.14.15-4.84-3h0a3.12,3.12,0,0,1,1.37-2.59h0a4.56,4.56,0,0,1,2.48-.61h20.6c1.55,0,4.51.05,8.76.16h0l5.87-.16a5.78,5.78,0,0,1,2.76.56h0a3.06,3.06,0,0,1,1.69,2.74h0c-.54,2.68-2.16,2.45-3.3,2.88h0a39,39,0,0,1-5.42.55h0A7.37,7.37,0,0,0,483,189h0a19.72,19.72,0,0,0-.45,5.12h0v80.55a51.33,51.33,0,0,0,.37,8.11h0a26.33,26.33,0,0,0,8.3,1.22h0a3.81,3.81,0,0,1,2.46.72h0a3.08,3.08,0,0,1,1.23,2.53h0a3.14,3.14,0,0,1-1.29,2.61h0a4.31,4.31,0,0,1-2.51.7H489.6Zm-23.36-104c1.4,2.19,1.06,4.4,1.24,9.61h0v79.57c-.11,5.16-.05,7.82-1.51,10h0c-.18.17-.37.32-.56.47h0c1.2-.05,2.39-.07,3.6-.06h0c4.78,0,8.75,0,11.87.06h0a6.93,6.93,0,0,1-.93-.68h0c-1.21-1.51-.91-2.25-1.19-4h0c-.14-1.65-.19-3.9-.19-6.81h0V194.13c.06-3.56.07-5.64,1.21-7.48h0a4.65,4.65,0,0,1,.87-.85h0c-2.23-.05-3.83-.06-4.79-.06H465.44a4.59,4.59,0,0,1,.8.79Zm-3.07,2.57h0l-.08,0,.07,0Z" transform="translate(-28.34 -18.06)"></path><path class="cls-5" d="M600.32,256.94c0,.77-1.19,1.15-3.62,1.15-5.42,0-8.45.81-9,2.41-.4,1.1-.62,5.46-.62,13.05v4.8a52.58,52.58,0,0,1-14.92,9.32,47.72,47.72,0,0,1-17,2.69q-23.85,0-37.89-14.23t-14-38.69q0-24.75,13.72-40t36.2-15.2q9.79,0,21.44,5.41a13.59,13.59,0,0,0,5.69,1.66c1.9,0,3.17-1.19,3.78-3.63.49-1.4,1.1-2.09,1.82-2.09s1.19.45,1.19,1.35c0,.1-.09,1.06-.26,2.87a102.47,102.47,0,0,0-.78,13.11v8.14a54.16,54.16,0,0,1-.15,7.7c-.22,1-.76,1.51-1.67,1.51s-1.41-.71-1.5-2.12c-.53-9.71-3.31-17.33-8.46-23s-11.86-8.42-20.19-8.42q-15.67,0-24.82,14T520.09,237c0,15.65,3.09,28,9.26,37.13s14.57,13.68,25.13,13.68c8.06,0,13.55-2.32,16.58-6.95q2.27-3.5,2.26-12.6c0-5.05-.48-8-1.42-8.94s-4.26-1.31-9.87-1.22a9.9,9.9,0,0,1-2.74-.21.81.81,0,0,1-.59-.87c0-1,1.09-1.48,3.33-1.48h2.68c2.21.11,7.76.11,16.62,0h16c2,0,3,.46,3,1.41Z" transform="translate(-28.34 -18.06)"></path><path class="cls-5" d="M515.78,277.53c-9.76-9.92-14.61-23.45-14.6-40.09h0c0-16.85,4.7-30.76,14.25-41.33h0c9.5-10.58,22.25-15.9,37.69-15.89h0c6.9,0,14.32,1.92,22.29,5.63h0a11.73,11.73,0,0,0,4.84,1.45h0c.92-.1,1.16-.1,1.9-2.27h0c.56-1.56,1.42-3.31,3.7-3.46h0a3.18,3.18,0,0,1,2.39,1h0a3.44,3.44,0,0,1,.8,2.35h0c0,.47-.09,1.16-.27,3.09h0c-.53,5.05-.82,9-.82,11.62h0c0,.45,0,.84,0,1.27h0V209c0,1.32,0,2.51,0,3.55h0a29.56,29.56,0,0,1-.23,4.57h0a3.72,3.72,0,0,1-3.62,3.12h0c-2.32.06-3.5-2.34-3.5-4h0c-.51-9.4-3.19-16.54-7.95-21.72h0c-4.74-5.19-10.83-7.73-18.7-7.76h0c-9.85.05-17.3,4.21-23.15,13.08h0c-5.77,8.88-8.8,21.21-8.8,37.12h0c0,15.36,3,27.34,8.93,36h0c5.94,8.67,13.49,12.76,23.47,12.81h0c7.71,0,12.36-2.15,14.89-6.06h0c1.11-1.63,2-5.6,1.94-11.49h0a25.59,25.59,0,0,0-.67-7.18h0c-.1-.32-.13-.32-.13-.31h0c0,.05,0,0-.27-.08h0a6.89,6.89,0,0,0-1.39-.32h0a41.31,41.31,0,0,0-5.32-.28H562a11.34,11.34,0,0,1-3.41-.31h0a2.9,2.9,0,0,1-1.93-2.77h0a3.22,3.22,0,0,1,2-2.93h0a8.18,8.18,0,0,1,3.33-.54h2.76c1.05.05,3,.07,5.75.07h0c2.73,0,6.32,0,10.79-.07h16a7.42,7.42,0,0,1,3.11.54h0a3.15,3.15,0,0,1,1.9,2.87h0a3,3,0,0,1-2.29,2.77h0a12.16,12.16,0,0,1-3.32.37h0c-3.9,0-6.45.56-7,1h0c-.15,0-.12.08-.15.08h0c-.17.19-.53,4.91-.48,12.35h0v4.8a2,2,0,0,1-.7,1.54h0a54.66,54.66,0,0,1-15.51,9.65h0a49.48,49.48,0,0,1-17.73,2.84h0c-16.3,0-29.56-4.93-39.32-14.85Zm57.49-19.67c1.92,2.22,1.92,5.15,2.05,10.39h0c0,6.23-.68,10.69-2.59,13.68h0a15.52,15.52,0,0,1-5.65,5.17h0a36.68,36.68,0,0,0,4.33-1.3h0a50.22,50.22,0,0,0,13.64-8.37h0v-3.88c0-7.78.08-11.77.72-13.75h0a5.67,5.67,0,0,1,2.06-2.26h-6.48c-3.27,0-6.07,0-8.43.06h0a3.18,3.18,0,0,1,.35.26ZM518.4,198.78c-8.78,9.78-13.2,22.53-13.21,38.66h0c0,15.9,4.54,28.17,13.44,37.27h0a44,44,0,0,0,22,12.1h0a32.62,32.62,0,0,1-13-11.6h0c-6.47-9.54-9.6-22.33-9.6-38.22h0c0-16.4,3.06-29.52,9.43-39.29h0A32.44,32.44,0,0,1,541,185.53h0a42.35,42.35,0,0,0-22.56,13.25Zm65.47,17.64a.06.06,0,0,1,0,0h0a.06.06,0,0,0,0,0Zm-8.18-24.59c4.33,4.73,7.08,10.76,8.3,18h0v-.76h0v-8c0-.49,0-1,0-1.41h0c0-2.63.22-6.12.66-10.5h0a5.31,5.31,0,0,1-4.38,2.17h0a15.8,15.8,0,0,1-6.57-1.86h0c-.31-.14-.61-.29-.94-.42h0a29.87,29.87,0,0,1,3,2.79Z" transform="translate(-28.34 -18.06)"></path><path class="cls-5" d="M640.6,287.26c0,.87-.6,1.3-1.83,1.3h-1.51q-.9-.45-20.6-.45-3.76,0-7.57.3c-1.29.11-3.32.15-6.05.15-1.32,0-2-.45-2-1.36s1.31-1.24,3.91-1.36c4-.08,6.4-.57,7.09-1.42s1.07-3.77,1.07-8.71V196.14q0-7.42-.77-8.33c-.61-1-3.42-1.61-8.39-1.81-1.93-.09-2.91-.46-2.91-1.07,0-.81.6-1.19,1.83-1.19h20.6c1.53,0,4.47,0,8.86.14l5.76-.14c1.66,0,2.47.42,2.47,1.29s-2.27,1.24-6.81,1.42c-2.57.11-4.14.55-4.71,1.36s-.84,2.92-.84,6.34v80.53c0,5.75.24,8.88.75,9.35,1.12,1.12,4.44,1.77,9.92,2,1.11,0,1.69.43,1.69,1.26Z" transform="translate(-28.34 -18.06)"></path><path class="cls-5" d="M637.25,290.57l-.6-.15v.07a.33.33,0,0,0-.18-.05h0c-.18,0-.52-.06-1-.08h0c-.89-.05-2.22-.1-3.9-.14h0c-3.39-.06-8.4-.12-15-.12h0c-2.47,0-4.92.12-7.41.32h0c-1.41.09-3.44.15-6.21.15h0a4.52,4.52,0,0,1-2.63-.7h0a3.23,3.23,0,0,1-1.33-2.67h0c.76-3.47,3.27-3,5.87-3.38h0a16.81,16.81,0,0,0,5.5-.68h0s.08,0,.08,0h0s0,0,.07-.28h0a12.69,12.69,0,0,0,.29-1.49h0a51.92,51.92,0,0,0,.26-5.64h0V196.14a40.27,40.27,0,0,0-.4-7h0s.08,0-.06-.26h0l0,.08a6.11,6.11,0,0,0-1.27-.39h0a38.9,38.9,0,0,0-5.47-.56h0c-1.87-.26-4.15.15-4.83-3.07h0a3.09,3.09,0,0,1,1.34-2.58h0a4.45,4.45,0,0,1,2.49-.61h20.6c1.57,0,4.51.05,8.79.15h0l5.83-.15a5.83,5.83,0,0,1,2.78.56h0a3.07,3.07,0,0,1,1.68,2.74h0c-.53,2.7-2.16,2.45-3.29,2.88h0a36.56,36.56,0,0,1-5.44.54h0a7.2,7.2,0,0,0-3.15.56h0v0a18,18,0,0,0-.46,5.17h0l0,80.53a57.56,57.56,0,0,0,.37,8.11h0a25.8,25.8,0,0,0,8.31,1.22h0a3.83,3.83,0,0,1,2.47.72h0a3.12,3.12,0,0,1,1.21,2.55h0a3.1,3.1,0,0,1-1.29,2.59h0a4.28,4.28,0,0,1-2.53.7h-1.52Zm-34.63-2.38v0s0,0,0,0Zm36.49-1.63h0Zm-25.2-100c1.37,2.18,1.07,4.4,1.24,9.61h0v79.57c-.12,5.16,0,7.82-1.52,10h0c-.18.17-.36.32-.56.48h0c1.2-.06,2.4-.08,3.59-.08h0c4.79,0,8.76,0,11.87.07h0a6.87,6.87,0,0,1-.94-.69h0c-1.18-1.52-.89-2.24-1.16-4h0c-.15-1.65-.2-3.9-.2-6.81h0V194.15c.07-3.58.07-5.66,1.21-7.49h0a4.82,4.82,0,0,1,.89-.86h0c-2.25-.05-3.85-.06-4.82-.06H613.1a5,5,0,0,1,.81.79Zm-11.38-.74h0Z" transform="translate(-28.34 -18.06)"></path><path class="cls-5" d="M748.49,286.16c-3.94-.12-6.51-.47-7.77-1.11s-2.28-2.05-3.1-4.32q-21.57-58.81-27-73.46-7-18.72-8.9-24.57c-.21-.63-.46-.93-.74-.93-.53,0-.92.56-1.24,1.67l-.63,2.74a17.9,17.9,0,0,0-1.41,4q-12.18,33.75-31.59,89.45-1.2,3.64-3.3,4.92c-1.43.88-3.71,1.36-6.88,1.42s-4.76.63-4.76,1.52.72,1.37,2.13,1.37a9.75,9.75,0,0,0,2-.25,22.57,22.57,0,0,1,4.67-.5c1.62,0,3.17,0,4.69.15,6.12.4,11.52.6,16.13.6,2.61,0,3.93-.49,3.93-1.51s-1.47-1.39-4.39-1.51c-4.72-.28-7.22-.49-7.55-.58a2.38,2.38,0,0,1-1.78-2.58c0-2,2.08-8.69,6.14-19.93l3.81-11.32h-.06q8.86-26.62,15.15-43.31s22.33,65.65,22.86,67.48l.77,2.11,1.23,4a9.18,9.18,0,0,1,.32,1.19q0,2.5-13.27,2.68c-2.73,0-4.09.56-4.09,1.75s1,1.55,3,1.55a16.08,16.08,0,0,0,2.26-.15l19.16-.6,19.16.6a22.15,22.15,0,0,0,2.72.15c1.5,0,2.25-.43,2.25-1.28s-1.32-1.34-3.91-1.42Z" transform="translate(-28.34 -18.06)"></path><path class="cls-5" d="M747.36,290.7l-19-.61-18.94.6a18.78,18.78,0,0,1-2.54.17h0a7,7,0,0,1-3.19-.61h0a3.31,3.31,0,0,1-1.82-3h0a3.41,3.41,0,0,1,2.23-3.14h0a9.5,9.5,0,0,1,3.8-.58h0c5.81,0,9.82-.61,11.12-1.11h0a.33.33,0,0,0,0-.15h0l-1.18-3.91-.83-2.25c-.37-1.32-15.67-46.36-21-62h0q-5.61,15.21-13,37.57h0a3.53,3.53,0,0,1-.08.4h0L679,263.42c-4.08,11.1-6.13,18.16-6,19.26h0c.16.85-.05.41.32.64h0s0,0,.32,0h0c.33,0,.83.08,1.45.14h0c1.24.08,3,.21,5.34.35h0c2.81.32,5.53,0,6.31,3.51h0a3.32,3.32,0,0,1-2.27,3h0a10.52,10.52,0,0,1-3.66.51h0c-4.65,0-10.1-.19-16.28-.6h0c-1.45-.1-3-.17-4.55-.17h0a19.87,19.87,0,0,0-4.2.47h0a10.46,10.46,0,0,1-2.42.3h0a4.81,4.81,0,0,1-2.68-.64h0a3.28,3.28,0,0,1-1.46-2.73h0a3.29,3.29,0,0,1,2.61-3h0a15.1,15.1,0,0,1,4.1-.55h0c3-.07,5-.58,5.88-1.15h0c.83-.48,1.74-1.64,2.48-3.85h0c12.94-37.13,23.45-67,31.5-89.2h0a21.06,21.06,0,0,1,1.46-4.25h0l.62-2.67c.38-1.14.88-2.88,3.15-3.09h0a2.91,2.91,0,0,1,2.66,2.28h0q1.9,5.79,8.88,24.52h0q5.41,14.63,27,73.45h0c.73,2.07,1.58,3,2.11,3.23h0c.58.38,3.14.82,6.93.89h0l-.06,2,.07-2c2.51.29,5.17,0,5.85,3.44h0a3.06,3.06,0,0,1-1.58,2.71h0a5.22,5.22,0,0,1-2.68.57h0a21.44,21.44,0,0,1-2.79-.16Zm-82.61-4.44c2.13.14,4.18.25,6.12.36h0a4.62,4.62,0,0,1-1.91-3.94h0c.08-2.86,2.17-9.22,6.25-20.58h0l3.65-10.84c0-.15.06-.3.08-.43h0q8.89-26.7,15.19-43.43h0a2,2,0,0,1,1.91-1.28h0a2,2,0,0,1,1.85,1.36h0c0,.05,22.31,65.55,22.86,67.43h0l.79,2.2,1.25,4a5.94,5.94,0,0,1,.38,1.75h0c-.3,2.31-1.73,3-3.37,3.5h0l8.53-.28,10.82.35a9.81,9.81,0,0,1-3.41-5h0q-21.56-58.82-27-73.46h0c-3.55-9.57-6.1-16.61-7.72-21.18h0l-.07.26a17.59,17.59,0,0,0-1.36,3.84h0Q687.42,224.59,668,280.25h0c-.87,2.66-2.16,4.74-4.09,5.94h0l.83.07Z" transform="translate(-28.34 -18.06)"></path><path class="cls-5" d="M190.87,280.27c-2.2,0-3.32,1.06-3.32,3.17a6.92,6.92,0,0,0,.76,2.72c.1.1.17.18.17.29,0,.62-.77.9-2.28.9-4.81,0-7.64-4.14-8.45-12.41q-2-21.93-7.91-30.32T148,233.51a9.31,9.31,0,0,1-1.52-.59,3.67,3.67,0,0,1,1.52-.48c9.64-.95,17.3-3.46,22.92-8.05A21.49,21.49,0,0,0,179.41,207a20.28,20.28,0,0,0-8.2-17Q163,183.72,149,183.74c-1.63,0-4.44.14-8.46.38-3.62.15-6.44.21-8.44.21L112,183.88a10,10,0,0,0-1.35-.14c-1.6,0-2.42.5-2.42,1.5s1.26,1.36,3.77,1.36c4.33.1,6.93.54,7.77,1.35s1.28,3.23,1.28,7.23v83.28c0,3.42-.18,5.36-.59,5.88-.41,1.11-3,1.72-7.69,1.82-2.92.1-4.38.52-4.38,1.19,0,.91,1.1,1.36,3.32,1.36h35.44c1.73,0,2.57-.45,2.57-1.36s-.66-1.19-1.95-1.19c-3.74-.1-6.05-.2-6.95-.32-3.22-.49-4.82-1.76-4.82-3.77V242.2l0,.19V222l0-.18V193.08c0-2.32.6-3.92,1.8-4.82s3.46-1.36,6.78-1.36q18.72,0,18.7,21.56,0,12.22-6.39,17.64a26.44,26.44,0,0,1-14.55,6.55v.23c4.73.65,8.34,4.11,10.84,6q5.27,4,6.17,13.66c1.12,10.63,1.94,17.29,2.49,19.9a24,24,0,0,0,3.7,8.15,21,21,0,0,0,18.4,9.78c7,0,10.57-2.1,10.57-6.33,0-2.52-1.21-3.76-3.63-3.76Z" transform="translate(-28.34 -18.06)"></path><path class="cls-5" d="M163.87,281.67a24.79,24.79,0,0,1-4-8.84h0c-.61-2.81-1.43-9.42-2.55-20.12h0c-.6-6.14-2.48-10-5.39-12.26h0c-2.64-2-6-5.08-9.88-5.59h0a2,2,0,0,1-1.76-1.88h0v-.27a2,2,0,0,1,1.82-2.06h0a24.48,24.48,0,0,0,13.44-6.06h0c3.67-3.11,5.67-8.28,5.69-16.13h0c-.31-13.85-5.16-19.3-16.7-19.56h0c-3.13,0-5.11.54-5.58,1h0c-.48.36-1,1.21-1,3.22h0l0,28.51.05.4v20.4a1,1,0,0,1-.05.33h0v39.34c.05.64.17,1.19,3.1,1.78h0c.69.11,3,.21,6.7.3h0a4.77,4.77,0,0,1,2.51.59h0a3.1,3.1,0,0,1,1.43,2.64h0a3.15,3.15,0,0,1-1.7,2.79h0a6.53,6.53,0,0,1-2.86.56H111.69a8.94,8.94,0,0,1-3.26-.5h0a3.06,3.06,0,0,1-2.06-2.85h0a3.08,3.08,0,0,1,2.57-2.79h0a17.6,17.6,0,0,1,3.75-.44h0c3.38,0,5.62-.51,6-.81h0v0h0a.46.46,0,0,1,0-.1h0a7.46,7.46,0,0,0,.14-.91h0c.09-.86.14-2.16.14-3.82h0V195.2a18.57,18.57,0,0,0-.57-5.59h0a.56.56,0,0,1-.06-.19h0a8.63,8.63,0,0,0-1.58-.44h0a30.87,30.87,0,0,0-4.83-.36h0a11.32,11.32,0,0,1-3.52-.47h0a3.19,3.19,0,0,1-2.25-2.91h0a3.3,3.3,0,0,1,1.55-2.83h0a5.19,5.19,0,0,1,2.85-.69h0a7.87,7.87,0,0,1,1.43.16h0l20,.45c2,0,4.74-.07,8.3-.19h0c4-.26,6.84-.42,8.57-.42h0c9.65,0,17.53,2.16,23.48,6.68h0a22.29,22.29,0,0,1,9,18.56h0a23.52,23.52,0,0,1-9.2,19h0a37.93,37.93,0,0,1-16.37,7.33h0c7,2.17,12.27,5.51,15.62,10.2h0c4.34,6.2,6.95,16.53,8.28,31.3h0c.91,7.8,3,10.42,6.12,10.58h0a7.14,7.14,0,0,1-.32-1.91h0a5.15,5.15,0,0,1,1.47-3.83h0a5.35,5.35,0,0,1,3.86-1.34h0v4c-1.55.3-1-.16-1.32,1.16h0a4.81,4.81,0,0,0,.48,1.65h0a2.29,2.29,0,0,1,.44,1.34h0a2.27,2.27,0,0,1-.16.94h0A3.31,3.31,0,0,0,192.5,284h0c-.3-1.83,0-1.46-1.63-1.75h0v-4a5.62,5.62,0,0,1,4.16,1.55h0a5.9,5.9,0,0,1,1.48,4.21h0a7.25,7.25,0,0,1-3.62,6.47h0c-2.29,1.36-5.24,1.87-9,1.88h-.12a23.06,23.06,0,0,1-19.94-10.71Zm-9.5-44.4c4.12,3.13,6.32,8.32,7,15h0c1.12,10.61,1.95,17.3,2.46,19.67h0a21,21,0,0,0,3.4,7.45h0c3.75,5.48,8.45,8.31,14.71,8.85h0c-3.62-2.06-5.64-6.87-6.15-13.13h0c-1.26-14.48-4-24.36-7.56-29.34h0c-2.79-4-7.58-7.05-14.43-9h0a7,7,0,0,0,.61.46ZM136.89,286.7a5.09,5.09,0,0,1-2.91-4.64h0V242h0l0-19.74-.06-.42,0-28.73c0-2.62.69-5,2.6-6.43h0a5.12,5.12,0,0,1,.64-.4h0c-2.08.05-3.8.08-5.22.08h0l-11.49-.28a6.28,6.28,0,0,1,.63.46h0c1.77,2,1.77,4.49,1.88,8.69h0v83.28c-.11,3.27.1,4.85-.71,6.56h0a.64.64,0,0,0-.06.1h0a3.89,3.89,0,0,1-.24.44h0l0,0a5.12,5.12,0,0,1-1.14,1.14h16ZM160.11,191c3.55,4.13,5.15,10,5.17,17.49h0c0,8.47-2.24,15.06-7.13,19.16h0c-.53.47-1.14.93-1.76,1.41h0a33.16,33.16,0,0,0,13.3-6.2h0c5.23-4.31,7.68-9.38,7.69-15.87h0c0-6.63-2.41-11.51-7.4-15.36h0c-4.52-3.44-10.53-5.41-18.21-5.8h0a16.87,16.87,0,0,1,8.34,5.17Z" transform="translate(-28.34 -18.06)"></path><polygon class="cls-5" points="159.4 330.58 159.4 302.72 160.95 302.72 160.95 328.98 168.78 328.98 168.78 330.58 159.4 330.58 159.4 330.58"></polygon><path class="cls-5" d="M227.06,347.12a8.49,8.49,0,0,1-5.65,1.79,8.69,8.69,0,0,1-5.65-1.82,6.68,6.68,0,0,1-2.4-5.4V320.78h1.58v20.91a5.06,5.06,0,0,0,1.95,4.23,7.18,7.18,0,0,0,4.52,1.39,7.09,7.09,0,0,0,4.53-1.45,5,5,0,0,0,2-4.17V320.78h1.6v20.91a6.67,6.67,0,0,1-2.46,5.43Z" transform="translate(-28.34 -18.06)"></path><polygon class="cls-5" points="235.79 330.58 228.38 317.66 221.04 330.58 219.24 330.58 227.44 316.18 219.7 302.72 221.54 302.72 228.42 314.77 235.32 302.72 237.16 302.72 229.43 316.29 237.63 330.58 235.79 330.58 235.79 330.58"></polygon><path class="cls-5" d="M296.13,347.12a8.55,8.55,0,0,1-5.66,1.79,8.74,8.74,0,0,1-5.65-1.82,6.67,6.67,0,0,1-2.38-5.4V320.78H284v20.91a5.1,5.1,0,0,0,2,4.23,7.18,7.18,0,0,0,4.52,1.39,7,7,0,0,0,4.52-1.45,5,5,0,0,0,2-4.17V320.78h1.61v20.91a6.7,6.7,0,0,1-2.46,5.43Z" transform="translate(-28.34 -18.06)"></path><path class="cls-5" d="M329.65,348.64l-8.87-13.92h-3v13.92h-1.56V320.78h6.45a9.46,9.46,0,0,1,3,.46,7.18,7.18,0,0,1,2.4,1.29,7.29,7.29,0,0,1,1.63,2.19,6.84,6.84,0,0,1,.61,3,7.67,7.67,0,0,1-.58,3.15,5.64,5.64,0,0,1-1.59,2.19,6.9,6.9,0,0,1-2.44,1.26,11,11,0,0,1-3.09.42l8.95,13.92Zm-1.48-23.32a4.42,4.42,0,0,0-1.3-1.62,5.18,5.18,0,0,0-1.91-1,8,8,0,0,0-2.33-.32h-4.85v10.73h5.27a5.78,5.78,0,0,0,4-1.41,5.22,5.22,0,0,0,1.55-4.06,5.51,5.51,0,0,0-.47-2.33Z" transform="translate(-28.34 -18.06)"></path><polygon class="cls-5" points="327.51 316.66 327.51 330.58 325.93 330.58 325.93 316.66 317.99 302.72 319.82 302.72 326.7 314.77 333.65 302.72 335.48 302.72 327.51 316.66 327.51 316.66"></polygon><polygon class="cls-5" points="394.94 330.58 394.94 316.06 379.62 316.06 379.62 330.58 378.06 330.58 378.06 302.72 379.62 302.72 379.62 314.47 394.94 314.47 394.94 302.72 396.55 302.72 396.55 330.58 394.94 330.58 394.94 330.58"></polygon><path class="cls-5" d="M468.28,345a15.26,15.26,0,1,1,4-10.3,14.06,14.06,0,0,1-4,10.3Zm-1.13-19.47a13,13,0,1,0-9.2,21.88,12.66,12.66,0,0,0,9.2-3.5,12.51,12.51,0,0,0,3.55-9.21,12.37,12.37,0,0,0-3.55-9.17Z" transform="translate(-28.34 -18.06)"></path><polygon class="cls-5" points="489.92 330.58 483.99 307.15 474.82 331.29 465.64 307.11 459.68 330.58 458.09 330.58 465.34 301.9 474.82 326.75 484.3 301.86 491.56 330.58 489.92 330.58 489.92 330.58"></polygon><polygon class="cls-5" points="509.39 330.58 509.39 302.72 522.77 302.72 522.77 304.32 510.99 304.32 510.99 314.47 522.77 314.47 522.77 316.18 510.99 316.18 510.99 328.98 522.77 328.98 522.77 330.58 509.39 330.58 509.39 330.58"></polygon><path class="cls-5" d="M577.69,348.41a10.76,10.76,0,0,1-3.59.54q-6.39,0-8.23-6.05l1.59-.54c.91,3.34,3.12,5,6.64,5a7,7,0,0,0,4.72-1.49,5.55,5.55,0,0,0,1.75-4.43,5.83,5.83,0,0,0-2.06-4.61,8.29,8.29,0,0,0-1.67-1.14c-.76-.41-1.73-.87-2.89-1.4a18.75,18.75,0,0,1-4.53-2.57,6.3,6.3,0,0,1,0-9.29,7.32,7.32,0,0,1,5-1.79c3.27,0,5.58,1.22,6.93,3.68l-1.51.64a5.17,5.17,0,0,0-1.87-1.9,6.66,6.66,0,0,0-3.55-.87,5.71,5.71,0,0,0-3.82,1.29,4.43,4.43,0,0,0-1.66,3.59,4.49,4.49,0,0,0,1.73,3.48,20.16,20.16,0,0,0,3.9,2.1,29.51,29.51,0,0,1,3.16,1.63,11.32,11.32,0,0,1,2.14,1.6,7.46,7.46,0,0,1,2.27,5.56q0,5.28-4.49,7Z" transform="translate(-28.34 -18.06)"></path><path class="cls-5" d="M400.89,93.12C410.18,88.06,417,78,417,66.86a29.46,29.46,0,1,0-58.91,0v41.76c-.07,11.23-7.46,25.78-19.46,28.24v16.68a33.89,33.89,0,0,0,15-5.23,44.34,44.34,0,0,0,15.71-18,49.57,49.57,0,0,0,5.08-21.6V67.55c0-9,5.6-12.16,9.85-13.23.43-.1.86-.2,1.3-.26a15.78,15.78,0,0,1,2.44-.23c1.91,0,12.91,1.19,12.91,14.49v24.8ZM387.56,18.06a48.9,48.9,0,0,0-48.91,48.8v67.07c4.28-1,8.06-4.08,10.93-8.16a31.31,31.31,0,0,0,5.62-17.15V66.86a32.35,32.35,0,1,1,64.7,0c0,12.87-8.15,24.24-19,29.5v17.18a17.89,17.89,0,0,0,4.64-1.22A50.74,50.74,0,0,0,427.39,94.7a48.54,48.54,0,0,0-39.83-76.64Z" transform="translate(-28.34 -18.06)"></path></g></g></svg> 